<svg xmlns="http://www.w3.org/2000/svg">
  <defs>
    <symbol viewBox="0 0 48 48" id="icon-avengers">
      <path fill="#FF3D00" d="M41 26.5C41 35.6 33.6 43 24.5 43c-2.4 0-4.6-.5-6.6-1.4l1.3-2.7c1.6.7 3.5 1.1 5.4 1.1C31.9 40 38 33.9 38 26.5c0-4.2-2-8-5-10.5v11.1l-5-5V15l-5.6 12H28v-2l5 5-5 4v-2h-7.9L15 43H9l15-30c-7.2.3-13 6.2-13 13.5 0 2 .4 3.9 1.2 5.6l-1.6 3.3C9 32.8 8 29.8 8 26.5 8 17.4 15.4 10 24.5 10h1L28 5h5v7.4c4.8 2.9 8 8.1 8 14.1zM28.7 36H33v-3.4L28.7 36z"/>
    </symbol>
    <symbol viewBox="0 0 48 48" id="icon-beast">
      <path fill="#424242" d="M46 3c0 26-9.04 30.19-9.04 30.19.03-.15-25.95-.15-25.92 0C11.04 33.19 2 29 2 3c0 0 7 12 22 12S46 3 46 3z"/>
      <path fill="#1565c0" d="M40 25c0 3-.95 6-3 6h-1v-7.82c.54-.68 1.27-1.42 2.05-2.18 1.02-1 2.054-4 2.054-4 2.05 0-.104 5-.104 8zM7.988 25c0 3 .95 6 3 6h1v-7.82c-.54-.68-1.27-1.42-2.05-2.18-1.02-1-2.054-4-2.054-4-2.05 0 .104 5 .104 8z"/>
      <path fill="#0d47a1" d="M39 25c0 4-3 4-3 4 0-1-.003-2.864 0-4l3-2.735V25zM8.988 25c0 4 3 4 3 4 0-1 .003-2.864 0-4l-3-2.735V25zM46 3c0 13-11 17.5-22 17.5S2 16 2 3c0 0 3 3 8 3 2 0 3-1 8-1 2 0 5.33 1 6 1s5-1 7-1c4 0 5 1 7 1 5 0 8-3 8-3z"/>
      <path fill="#1976d2" d="M36 23.38C36 16 30 16 30 16c-4 0-6 2-6 2s-2-2-6-2c0 0-6 0-6 7.38.01 2.13-1 8.74-1 9.37 0 1.14.9 2.35 2.38 5.81 1.43 3.36 2.16 5.44 4.14 5.44h12.96c1.98 0 2.71-2.08 4.14-5.44C36.1 35.1 37 33.89 37 32.75c0-.63-1.01-7.24-1-9.37z"/>
      <path fill="#1565c0" d="M21.61 25.87L21 28.02h-3.06c-.61 0-1.2-.18-1.7-.53-.42-.28-2.6-1.5-4.33-2.46.06-.66.09-1.24.09-1.65 0-4.13 1.88-5.95 3.53-6.74.01-.01.02-.01.03-.02.09-.04.18-.07.26-.11-.82 1.53-.82 3.71-.82 3.71v.87h.87l5.74 4.78zm4.78 0l.61 2.15h3.06c.61 0 1.2-.18 1.7-.53.42-.28 2.6-1.5 4.33-2.46-.06-.66-.09-1.24-.09-1.65 0-4.13-1.88-5.95-3.53-6.74-.01-.01-.02-.01-.03-.02-.09-.04-.18-.07-.26-.11.82 1.53.82 3.71.82 3.71v.87h-.87l-5.74 4.78z"/>
      <path fill="#e0e0e0" d="M32 34s-1 1-3 1c-1 0-2-1-5-.995-3 .004-4 .995-5 .995-2 0-3-1-3-1s0 4 2.223 4c0 0 2.777-1.005 5.777-1.005S29.777 38 29.777 38C32 38 32 34 32 34z"/>
      <path fill="#1565c0" d="M11 32.751c0-.4.406-3.193.701-5.732L13 28.667a5 5 0 011 3v8.347c-.195-.454-.397-.93-.618-1.448C11.9 35.097 11 33.888 11 32.751zm26-.087c0-.4-.406-3.193-.701-5.732L35 28.58a5 5 0 00-1 3v8.347c.195-.454.397-.93.618-1.448C36.1 35.01 37 33.801 37 32.664z"/>
      <path fill="#1565c0" d="M36.3 26.93c.01.07.02.15.02.22l-.03-.21.01-.01zm.68 5.47c-.04-.32-.1-.81-.18-1.41-.07-.58-.16-1.25-.25-1.97.1.72.19 1.4.26 1.97.08.62.14 1.12.17 1.41z"/>
      <path fill="#fafafa" d="M29 34s0 2-1 3l1 1 1-1s0-2-1-3zm-10 0s0 2 1 3l-1 1-1-1s0-2 1-3z"/>
      <path fill="#1565c0" d="M16 36.73S16.012 42 19.01 42c1.999 0 2.998-2.008 4.996-2.008S27.004 42 29.002 42C32 42 32 36.73 32 36.73S26.001 38 24 38s-8-1.27-8-1.27z"/>
      <path fill="#1e88e5" d="M29 39c-2 0-2-1-5-1s-3 1-5 1-3-1.057-3-2.465V34s.716 3.126 2.778 3.047C20 37 21 36 24 36s4 1 5 1c2.236 0 3-3 3-3v2.535C32 37.943 31 39 29 39z"/>
      <path fill="#0d47a1" d="M21 25v2l-.106.211A8.478 8.478 0 0020 31c1.5 0 3 1 3 1v-6h-1l-1-1zm6.106 2.211L27 27v-2l-1 1h-1v6s1.5-1 3-1a8.478 8.478 0 00-.894-3.789z"/>
      <path fill="#1e88e5" d="M26 26l-.5 1a2.235 2.235 0 000 2c.315.63.315 1.37 0 2l-.5 1h-2l-.5-1a2.235 2.235 0 010-2c.315-.63.315-1.37 0-2l-.5-1 2-1 2 1z"/>
      <path fill="#efebe9" d="M20 24h-3.286C15.857 24 15 25.434 15 25.434c1.543 0 2 .566 3 .566s1.457-.566 3-.566c0 0-.143-1.434-1-1.434zm8 0h3.286C32.143 24 33 25.434 33 25.434c-1.543 0-2 .566-3 .566s-1.457-.566-3-.566c0 0 .143-1.434 1-1.434z"/>
      <path fill="#90caf9" d="M18 24a1 1 0 100 2 1 1 0 100-2zm12 0a1 1 0 100 2 1 1 0 100-2z"/>
      <path fill="#424242" d="M22 26v-3c-2 0-4.167-2-6.667-2-1.666 0-3.333.8-3.333.8l.833.8v1.6s1.328-.8 2.5-.8C17.208 23.4 19.5 26 22 26zm4 0v-3c2 0 4.167-2 6.667-2 1.666 0 3.333.8 3.333.8l-.833.8v1.6s-1.328-.8-2.5-.8C30.792 23.4 28.5 26 26 26z"/>
    </symbol>
    <symbol viewBox="0 0 100 100" id="icon-black-panther-mask">
      <path d="M51.904 95.994c-.135 0-.268-.004-.401-.013a5.967 5.967 0 01-.401.013c-7.563-.028-9.988-1.646-10.785-2.178a6.835 6.835 0 01-.378-.271C39.105 92.894 20 77.699 20 55.5c0-1.315.023-2.214.044-2.953.033-1.25.048-1.77-.12-3.505-.09-.933-.205-1.843-.32-2.758C19.32 44.023 19 41.469 19 38.5c0-2.501.171-6.643.975-12.28-.031-.538-.066-1.072-.102-1.604-.318-4.842-.647-9.848 1.461-16.172a6.54 6.54 0 014.692-4.275A6.535 6.535 0 0127.5 4c1.724 0 3.408.703 4.621 1.929l4.981 5.035a6.427 6.427 0 011.957-.796 114.512 114.512 0 011.46-.494c.432-.136.832-.258 1.24-.37.438-.122.912-.236 1.391-.348l.218-.052c.22-.053.438-.104.662-.151A39.353 39.353 0 0152 7.951c4.566 0 8.939.857 12.997 2.549l.028.012c.301.125.599.255.894.39l4.987-4.994A6.55 6.55 0 0175.505 4a6.51 6.51 0 011.524.182 6.441 6.441 0 014.644 4.267c2.107 6.321 1.778 11.327 1.46 16.168 0 0-.076 1.167-.102 1.605.804 5.633.975 9.777.975 12.279 0 2.969-.32 5.523-.603 7.777-.116.922-.231 1.832-.321 2.764-.168 1.736-.153 2.256-.12 3.51.021.735.044 1.634.044 2.949 0 22.199-19.105 37.394-19.919 38.029-.154.119-.29.217-.429.308-.766.512-3.19 2.129-10.73 2.157h-.024z" opacity=".35"/>
      <path fill="#f2f2f2" d="M49.904 93.994c-.135 0-.268-.004-.401-.013a5.967 5.967 0 01-.401.013c-7.563-.028-9.988-1.646-10.785-2.178a6.835 6.835 0 01-.378-.271C37.105 90.894 18 75.699 18 53.5c0-1.315.023-2.214.044-2.953.033-1.25.048-1.77-.12-3.505-.09-.933-.205-1.843-.32-2.758C17.32 42.023 17 39.469 17 36.5c0-2.501.171-6.643.975-12.28-.031-.538-.066-1.072-.102-1.604-.318-4.842-.647-9.848 1.461-16.172a6.54 6.54 0 014.692-4.275A6.535 6.535 0 0125.5 2c1.724 0 3.408.703 4.621 1.929l4.981 5.035a6.427 6.427 0 011.957-.796 114.512 114.512 0 011.46-.494c.432-.136.832-.258 1.24-.37.438-.122.912-.236 1.391-.348l.218-.052c.22-.053.438-.104.662-.151A39.353 39.353 0 0150 5.951c4.566 0 8.939.857 12.997 2.549l.028.012c.301.125.599.255.894.39l4.987-4.994A6.55 6.55 0 0173.505 2a6.51 6.51 0 011.524.182 6.441 6.441 0 014.644 4.267c2.107 6.321 1.778 11.327 1.46 16.168 0 0-.076 1.167-.102 1.605.804 5.633.975 9.777.975 12.279 0 2.969-.32 5.523-.603 7.777-.116.922-.231 1.832-.321 2.764-.168 1.736-.153 2.256-.12 3.51.021.735.044 1.634.044 2.949 0 22.199-19.105 37.394-19.919 38.029-.154.119-.29.217-.429.308-.766.512-3.19 2.129-10.73 2.157h-.024z"/>
      <path fill="#ffc7a3" d="M33.251 77l8.672 7.781A13.209 13.209 0 0049.251 87c2.608 0 5.158-.216 7.328-1.663L65.251 77l4-30h-40l4 30z"/>
      <path fill="#707cc0" d="M74 9s-5 1-9 8c-3.612-3.469-8.829-5-15.749-5-7.122 0-12.202 2.087-15.749 5.39C30.172 9.697 25 9 25 9c-3.379 10.137-.584 10.854-1 16-.322 3.991-1.213 7.266-1 9 1.008 8.184 2 24 2 24-.492 2.954 1.062 6.42 2.548 9.02L33.251 77l9.176 9.865 13.045-.202L65 77l6.247-9.09C72.733 65.31 74 58 74 58c-.728-4.371-.008-15.816 1-24 .489-3.97 0-5-1-25z"/>
      <path fill="none" stroke="#d9eeff" stroke-linecap="round" stroke-linejoin="round" stroke-miterlimit="10" stroke-width="3" d="M46.5 45.5l-15-8V19.079s5.871-6.628 18.5-6.628c11.337 0 17.5 6.527 17.5 6.527V37.5l-15 8"/>
      <path fill="#f2f2f2" d="M30.75 44L43 49.25S41.25 51 37.75 51c-6.125 0-7-7-7-7zM68 44l-12.25 5.25S57.5 51 61 51c6.125 0 7-7 7-7z"/>
      <path fill="none" stroke="#d9eeff" stroke-linecap="round" stroke-linejoin="round" stroke-miterlimit="10" stroke-width="3" d="M46.5 45.5l-8-12v-19M60.5 14.5v19l-8 12M50 12.5v13M31.5 37.5l-7-13M74.5 24.5l-7 13"/>
      <path fill="none" stroke="#40396e" stroke-linecap="round" stroke-linejoin="round" stroke-miterlimit="10" stroke-width="3" d="M50 12.461c-6.83 0-12.427 1.949-16.061 4.639M50 12.461c5.5 0 10.882 1.646 14.607 4.292"/>
      <path fill="none" stroke="#d9eeff" stroke-linecap="round" stroke-linejoin="round" stroke-miterlimit="10" stroke-width="3" d="M52.5 45.5v8h-6v-8M46.5 53.5l-14 3-8-13 7-6M52.5 53.5l14 3 8-13-7-6M53.6 63.5s-2.1-1-4.35-1c-2.75 0-4.35 1-4.35 1l-2.9-9h14.5l-2.9 9zM28.5 66.5h6l6 8-3.107 5.219M70.5 66.5h-6l-6 8 3.107 5.219"/>
      <path fill="none" stroke="#40396e" stroke-linecap="round" stroke-linejoin="round" stroke-miterlimit="10" stroke-width="3" d="M49.101 87.494c-3.071-.011-6.111-.373-7.178-1.085 0 0-17.423-13.612-17.423-32.91 0-3.702.203-3.883-.107-7.084-.312-3.227-.893-6.208-.893-9.915 0-5.826 1.004-11.922 1-12-.275-5.287-1-10 1-16l8.331 8.421M49.904 87.494c3.071-.011 6.111-.373 7.178-1.085 0 0 17.423-13.612 17.423-32.91 0-3.702-.203-3.883.107-7.084.312-3.227.893-6.208.893-9.916 0-5.826-1.004-11.922-1-12 .275-5.287 1-10-1-16l-8.503 8.514"/>
    </symbol>
    <symbol viewBox="0 0 48 48" id="icon-black-widow">
      <path fill="#bf360c" d="M14 30h20v12H14V30z"/>
      <path fill="#ff9800" d="M24.004 36.996h-7v8h14v-8h-7z"/>
      <path fill="#ffb74d" d="M23.562 10.175l-8.822 3.529c-.447.179-.74.612-.74 1.094v15.903c0 3.321 1.62 6.434 4.341 8.338l3.003 2.102a4.633 4.633 0 005.312 0l3.003-2.102A10.178 10.178 0 0034 30.701V14.798c0-.482-.293-.915-.741-1.094l-8.822-3.529a1.181 1.181 0 00-.875 0z"/>
      <path fill="#e64a19" d="M26.004 4.996c12.996 0 14.067 10.13 15 15.004C41.837 24.352 46 27.569 46 32c0 9-11.996 9.996-11.996 9.996v-21.7c-.1-6.5-4-8.3-10-8.3s-9.9 1.9-10 8.3v21.7S2 41 2 32c0-5 3.931-7.452 5-12 1.213-5.163 3-17.004 15.004-17.004 3 0 4 2 4 2z"/>
      <path fill="#efebe9" d="M27.004 25.996s.6-3 3.2-3c2.2 0 2.8 1.3 2.8 1.3s-.9 1.7-2.5 1.7h-3.5zm-6 0s-.6-3-3.2-3c-2.2 0-2.8 1.3-2.8 1.3s.9 1.6 2.5 1.6 1.5.1 3.5.1z"/>
      <path fill="#2e7d32" d="M31.004 24.496c0 .8-.7 1.5-1.5 1.5s-1.5-.7-1.5-1.5c0-.2 0-.5.2-.7.4-.4.9-.7 1.6-.8.7.2 1.2.8 1.2 1.5zm-14 0c0 .8.7 1.5 1.5 1.5s1.5-.7 1.5-1.5c0-.2 0-.5-.2-.7-.4-.4-.9-.7-1.6-.8-.7.2-1.2.8-1.2 1.5z"/>
      <path fill="#263238" d="M29.504 23.996a.5.5 0 100 1 .5.5 0 000-1zm-11 0a.5.5 0 100 1 .5.5 0 000-1z"/>
      <path fill="#424242" d="M27.004 25.996s.6-3 3.2-3c2.2 0 2.8 1.3 2.8 1.3s0-.3-3-.3c-1.6 0-3 2-3 2z"/>
      <path fill="#424242" d="M25.004 23.996c2.7-1.3 4-4 6-4s3 3.1 3 3.1-1-1.5-3-1.5c-1.8 0-3.7 2.4-6 2.4zm-4 2s-.6-3-3.2-3c-2.2 0-2.8 1.3-2.8 1.3s0-.3 3-.3c1.6 0 3 2 3 2z"/>
      <path fill="#424242" d="M23.004 23.996c-2.7-1.3-4-4-6-4s-3 3.1-3 3.1 1-1.5 3-1.5c1.8 0 3.8 2.4 6 2.4z"/>
      <path fill="#ff5252" d="M25.304 33.996c-1.1 0-1.3 1-1.3 1s0-1-1.3-1-2.7 1-2.7 1 1 2 4 2 4-2 4-2-1.6-1-2.7-1z"/>
      <path fill="#e64a19" d="M25 10s-1 6-6 11c-2.828 2.828-5 4-5 7l-1-7V10h12z"/>
      <path fill="#424242" d="M22 45l-1-2c-4-2-4-5-4-5v7h5zM26 45l1-2c4-2 4-5 4-5v7h-5z"/>
    </symbol>
    <symbol viewBox="0 0 48 48" id="icon-captain-america">
      <path fill="#b0bec5" d="M38 11v4.6l1.5-1.2c.3-.3.5-.6.5-1.1v-1c0-.2 0-.4.1-.6l.7-1.4c.2-.2.2-.4.2-.6V8.4L38 11zm-28 0v4.6l-1.5-1.2c-.3-.3-.5-.6-.5-1.1v-1c0-.2 0-.4-.1-.6l-.7-1.4c-.2-.2-.2-.4-.2-.6V8.4l3 2.6z"/>
      <path fill="#90a4ae" d="M37.2 14.5v1.8l2.3-1.8c.3-.3.5-.6.5-1.1v-1l-2.8 2.1zm-26.4 0v1.8l-2.3-1.8c-.3-.4-.5-.7-.5-1.2v-1l2.8 2.2z"/>
      <path fill="#cfd8dc" d="M37 10.2v2.1c0 .4-.2.8-.5 1.1L35 14.5V18l2.2-1.8c.5-.4.8-1 .8-1.7V12c0-.6.3-1.3.8-1.7L41 8.4c0-.3.1-.6.3-.8l.4-.6c.2-.2.3-.5.3-.8V4l-4.7 5.3c-.2.2-.3.6-.3.9zm-26 0v2.1c0 .4.2.8.5 1.1l1.5 1.1V18l-2.2-1.8c-.5-.4-.8-1-.8-1.7V12c0-.6-.3-1.3-.8-1.7L7 8.4c0-.3-.1-.6-.3-.8L6.3 7c-.2-.2-.3-.5-.3-.8V4l4.7 5.3c.2.2.3.6.3.9z"/>
      <path fill="#1565c0" d="M34 38.2V26H14v12.2c0 1.1-.6 2-1.5 2.6C9.1 42.9 6 46 6 46h36s-3.1-3.1-6.5-5.2c-.9-.5-1.5-1.5-1.5-2.6z"/>
      <path fill="#ffa726" d="M35 21.8s.3-2.8 3-2.8c1 0 1 2.7 1 3.5 0 1-1 2.5-1 3v.8c0 1-1.5 2.8-3 2.8v-7.3zm-22 0s-.3-2.8-3-2.8c-1 0-1 2.7-1 3.5 0 1 1 2.5 1 3v.8c0 1 1.5 2.8 3 2.8v-7.3z"/>
      <path fill="#ffb74d" d="M24 12H12v20.6c0 .9.4 1.7 1 2.3l6.1 5.4c.5.5 1.2.7 2 .7h5.7c.7 0 1.4-.3 2-.7l6.1-5.4c.7-.6 1-1.4 1-2.3V12H24z"/>
      <path fill="#1e88e5" d="M24 2C12.3 2 12 12 12 12v20.6c0 .9.4 1.7 1 2.3l2 1.7-1-8.6c3 0 9-4 10-4s7 4 10 4l-1 8.6 2-1.7c.7-.6 1-1.4 1-2.3V12S35.7 2 24 2z"/>
      <path fill="#fb8c00" d="M20.4 34.7l-.9-1.8c.1 0 1.8-.9 4.4-.9 2.6 0 4.4.9 4.4.9l-.9 1.8S26 34 23.8 34c-1.9 0-3.3.7-3.4.7z"/>
      <path fill="#1976d2" d="M36 32.6V25s-1.6 1.2-2 1.7c-.7.8-1 1.3-1 2.3v7.6l2-1.7c.6-.6 1-1.4 1-2.3zm-24 0V25s1.6 1.2 2 1.7c.7.8 1 1.3 1 2.3v7.6l-2-1.7c-.6-.6-1-1.4-1-2.3zm24-16V23s-1-1-4-1V6.2c0-.8-.3-1.6-.6-2.3 4.1 2.6 4.5 7.2 4.6 8v4.7zM16.6 3.9c-.3.7-.6 1.5-.6 2.3V22c-3 0-4 1-4 1v-6.4-4.7c.1-.8.5-5.3 4.6-8z"/>
      <path fill="#ffb74d" d="M25.2 21.2c1-1.6 3.8-4.9 8.2-5.2.4 0 .8.2 1 .6.3.7.7 2 .7 4.4 0 1.8-.4 2.9-.7 3.5-.2.3-.6.5-.9.5-4.1-.1-6.7-1.6-7.9-2.4-.6-.3-.7-.9-.4-1.4zm-2.4 0c-1-1.6-3.8-4.9-8.2-5.2-.4 0-.8.2-1 .6-.3.7-.7 2-.7 4.4 0 1.8.4 2.9.7 3.5.2.3.6.5.9.5 4.1-.1 6.7-1.6 7.9-2.4.6-.3.7-.9.4-1.4z"/>
      <path fill="#eee" d="M21 21.9S19.7 23 18 23s-3-.9-3-1.1c0-.9.3-2.2 2-2.2s4 2.2 4 2.2zm6 0s1.3 1.1 3 1.1 3-.8 3-1.1c0-.9-.3-2.2-2-2.2-1.7.1-4 2.2-4 2.2z"/>
      <path fill="#424242" d="M22 22c-3.4-1.3-4.1-4-6.5-4S13 21 13 21s.8-1 2.3-1c2.2 0 3.9 2 6.7 2zm4 0c3.4-1.3 4.1-4 6.5-4s2.5 3 2.5 3-.8-1-2.3-1c-2.2 0-3.9 2-6.7 2z"/>
      <path fill="#90caf9" d="M17 22c0 .6.4 1 1 1s1-.4 1-1-.4-1-1-1-1 .4-1 1m14 0c0 .6-.4 1-1 1s-1-.4-1-1 .4-1 1-1 1 .4 1 1"/>
      <path fill="#cfd8dc" d="M27.5 6h-7.1L18 15.6l2.9.7.6-2.4h4.9l.6 2.4 2.9-.7L27.5 6zm-5.2 5l.5-2h2.4l.5 2h-3.4z"/>
    </symbol>
    <symbol viewBox="0 0 100 100" id="icon-cyclop-marvel">
      <path d="M81 35.278V31a8.03 8.03 0 00-.095-1.23C79.681 15.299 66.598 4 51 4 35.396 4 22.312 15.302 21.094 29.779A8.048 8.048 0 0021 31v4.278c-4.156 2.048-7 6.335-7 11.222v12c0 4.887 2.844 7.174 7 9.222v5.532c0 5.027 2.497 9.693 6.68 12.481l2.883 1.922 1.787 1.192 1.213.808 5.672 3.781A21.142 21.142 0 0051 97c4.202 0 8.27-1.232 11.766-3.562l5.672-3.781 1.212-.808 1.788-1.192 2.882-1.922A14.971 14.971 0 0081 73.254v-3.532c4.156-2.048 7-6.335 7-11.222v-12c0-4.887-2.844-9.174-7-11.222z" opacity=".35"/>
      <path fill="#f2f2f2" d="M79 33.278V29a8.03 8.03 0 00-.095-1.23C77.681 13.299 64.598 2 49 2 33.396 2 20.312 13.302 19.094 27.779A8.048 8.048 0 0019 29v4.278c-4.156 2.048-7 6.335-7 11.222v12c0 4.887 2.844 9.174 7 11.222v3.532c0 5.027 2.497 9.693 6.68 12.481l2.883 1.922 1.787 1.192 1.213.808 5.672 3.781A21.142 21.142 0 0049 95c4.202 0 8.27-1.232 11.766-3.562l5.672-3.781 1.212-.808 1.788-1.192 2.882-1.922A14.971 14.971 0 0079 71.254v-3.532c4.156-2.048 7-6.335 7-11.222v-12c0-4.887-2.844-9.174-7-11.222z"/>
      <path fill="#2b59a1" d="M71 30c0 11.046-9.85 23-22 23S27 41.046 27 30s9.85-20 22-20 22 8.954 22 20z"/>
      <path fill="#ffc7a3" d="M33 79l8.672 5.781a13.209 13.209 0 0014.656 0L65 79V42H33v37z"/>
      <path fill="#2b59a1" d="M33 49v4.742c0 1.49.303 2.964.889 4.333l.574 1.34A18.996 18.996 0 0136 66.9V81l-5.883-3.922A7 7 0 0127 71.254V29h6v20zM65 49v4.742c0 1.49-.303 2.964-.889 4.333l-.574 1.34A18.996 18.996 0 0062 66.9V81l5.883-3.922A7 7 0 0071 71.254V29h-6v20z"/>
      <path fill="#ef8630" d="M27 63h-2.5c-2.475 0-4.5-2.507-4.5-5.571V42.571C20 39.507 22.025 37 24.5 37H27v26zM71 63h2.5c2.475 0 4.5-2.411 4.5-5.357V43.357C78 40.411 75.975 38 73.5 38H71v25z"/>
      <path fill="#f9b84f" d="M69.233 42H26.985c-3.833 2.35-3.656 10.441-1.27 12.429A15.403 15.403 0 0035.577 58h9.564c.446-1.722 1.997-3 3.859-3s3.413 1.278 3.859 3h9.564a15.41 15.41 0 009.861-3.569l.774-.645C75.499 49.988 72.832 42 69.233 42z"/>
      <path fill="#de5147" d="M67.5 51h-37a1.5 1.5 0 010-3h37a1.5 1.5 0 010 3z"/>
      <path fill="#40396e" d="M49 10c11.781 0 21.399 8.419 21.972 19H71v8.5a2.5 2.5 0 002.5 2.5c2.475 0 4.5 2.025 4.5 4.5v12c0 2.475-2.025 4.5-4.5 4.5a2.5 2.5 0 00-2.5 2.5v7.754a7.002 7.002 0 01-3.117 5.825L65 79l-1.787 1.192L62 81l-5.672 3.781a13.209 13.209 0 01-14.656 0L36 81l-1.213-.808L33 79l-2.883-1.922A7 7 0 0127 71.254V63.5a2.5 2.5 0 00-2.5-2.5 4.513 4.513 0 01-4.5-4.5v-12c0-2.475 2.025-4.5 4.5-4.5a2.5 2.5 0 002.5-2.5V29h.028C27.601 18.419 37.219 10 49 10m0-3c-13.18 0-24.046 9.367-24.94 21.406-.039.192-.06.391-.06.594v8.016c-3.903.258-7 3.516-7 7.484v12c0 3.967 3.097 7.225 7 7.484v7.27a9.982 9.982 0 004.453 8.321l2.883 1.922 1.787 1.192 1.213.808 5.672 3.781C42.679 89.059 45.789 90 49 90s6.321-.941 8.992-2.723l5.672-3.781 1.213-.808 1.787-1.192 2.883-1.922A9.98 9.98 0 0074 71.254v-7.27c3.903-.258 7-3.516 7-7.484v-12c0-3.967-3.097-7.225-7-7.484V29c0-.207-.021-.408-.061-.603C73.04 16.363 62.177 7 49 7z"/>
      <path fill="#2785bd" d="M66.5 30a1.5 1.5 0 01-1.433-1.059c-3.636-11.816-12.354-12.909-12.723-12.949a1.504 1.504 0 01-1.331-1.648 1.49 1.49 0 011.637-1.336c.449.045 11.04 1.258 15.284 15.051A1.5 1.5 0 0166.5 30z"/>
    </symbol>
    <symbol viewBox="0 0 48 48" id="icon-deadpool">
      <path fill="#a31919" d="M33 38.238V26H13v12.238c0 1.065-.575 2.034-1.484 2.589C8.067 42.933 5 46 5 46h36s-3.067-3.067-6.516-5.173C33.575 40.272 33 39.304 33 38.238z"/>
      <path fill="#424242" d="M34.46 40.81C30.91 42.22 27.05 43 23 43s-7.91-.78-11.46-2.19c.89-.56 1.46-1.52 1.46-2.57v-.89C16.14 38.42 19.5 39 23 39s6.86-.58 10-1.65v.89c0 1.05.57 2.01 1.46 2.57z"/>
      <path fill="#a31919" d="M33 20.75S32.306 18 34.985 18C36 18 37 19 37 22s-2.508 6-4 6v-7.25zm-20.081 0S13.613 18 10.934 18c-1.015 0-2.015 1-2.015 4s2.508 6 4 6v-7.25z"/>
      <path fill="#c62828" d="M23 2C11.29 2 11 12 11 12v20.639a3 3 0 001.024 2.258L14 36.625l4.152 3.633a3.003 3.003 0 001.975.742h5.746c.727 0 1.429-.264 1.976-.742L32 36.625l1.976-1.729A2.997 2.997 0 0035 32.639V12S34.71 2 23 2z"/>
      <path fill="#b71c1c" d="M16 12v19l-.004 7.371L14 36.62l-1.98-1.72c-.65-.57-1.02-1.4-1.02-2.26V12s.159-5.49 4.999-8.33L16 12zm14 0v19l.004 7.371L32 36.62l1.98-1.72c.65-.57 1.02-1.4 1.02-2.26V12s-.159-5.49-4.999-8.33L30 12z"/>
      <path fill="#424242" d="M26 14s3.357-2 4-2 3 7.593 3 9c0 2.111-1.714 10-3 10s-6-6.593-6-8c0-2.111 2-9 2-9zm-6 0s-3.357-2-4-2c-.643 0-3 7.593-3 9 0 2.111 1.714 10 3 10s6-6.593 6-8c0-2.111-2-9-2-9z"/>
      <path fill="#212121" d="M30 12c.643 0 3 7.593 3 9 0 2.111-1.714 10-3 10V12zm-14 0c-.643 0-3 7.593-3 9 0 2.111 1.714 10 3 10V12z"/>
      <path fill="#eee" d="M25 22h3c1.657 0 3-.555 3-.667 0-.552-.343-1.333-2-1.333s-4 2-4 2zm-4 0h-3c-1.657 0-3-.555-3-.667 0-.552.343-1.333 2-1.333s4 2 4 2z"/>
    </symbol>
    <symbol viewBox="0 0 48 48" id="icon-fantastic-four">
      <path fill="#1976d2" d="M24 4C12.947 4 4 12.84 4 24s8.947 20 20 20 20-8.84 20-20S35.053 4 24 4zm0 37c-9.301 0-17-7.699-17-17S14.699 7 24 7c9.5 0 17 7.699 17 17s-7.699 17-17 17zm6-3.301C28.199 38.5 26.102 39 24 39c-8.301 0-15-6.699-15-15S15.699 9 24 9c2.602 0 5 .699 7.199 1.801L14 28v2h16v7.699zm4-24.898C37.102 15.5 39 19.5 39 24c0 .699-.102 1.301-.102 2H34V12.801zM19 26l11-11v11H19zm18.699 4c-.898 2-2.199 3.699-3.699 5.199V30h3.699z"/>
    </symbol>
    <symbol viewBox="0 0 48 48" id="icon-groot">
      <path fill="#689f38" d="M15 8h-1c0-2.2-1.3-3.6-1.4-3.6l.7-.7c.1 0 1.7 1.6 1.7 4.3z"/>
      <path fill="#689f38" d="M15 11h-1V8c0-2.2 2.5-5.2 2.6-5.3l.8.6C16.7 4.1 15 6.5 15 8v3z"/>
      <path fill="#a1887f" d="M11 13l-2.8 8c.7 2.3 1.6 3.8 1.8 5 .4 1.9.5 6.1 2 10s2.1 6.1 5 8 4.2 3 6 3c2 0 5.2-1.2 7-3s3-3 5-6c1.2-1.9 3.5-7.9 4-14s-3-12-3-12l-8-8-5 2-2-2s-.3.2-.7.5L20 7l-9 6z"/>
      <path fill="#7cb342" d="M20.3 4.5l.7 3.3c.1.7-.2 1.3-.8 1.6l-.3.1c-.6.3-.9.9-.8 1.6l1 5.9-3-5-3 8s-2-4-2-7c0 0-1.1 4-3.8 8-.4-1.3-.8-3-.9-5.2C7 11 7 9 7 9l4.8-1.6L13.1 9l-.1 1h1l2-3h.6l.4 1 1-1c.1-.7 1.5-1.9 2.3-2.5z"/>
      <path fill="#689f38" d="M40 8c0 6-.5 9.9-1 16 0 .1-.5-3.4-.8-4.9-.1-.7-.4-1.4-.8-2.1l-3.1-4.7c-.6-1.1-2.1-1.2-2.9-.2L30 14v-3.6c0-.3 0-.6-.1-.8l-.7-3.4c-.1-.7-.7-1.2-1.4-1.2h-.3c-.8 0-1.6.6-1.7 1.4L24 16l-1-8 1-3c0-3 2-3 2-3l1-2 1 2L29.4.7l.6.3c1.1.8 1 .8 1 3 0 1.3 1 5 1 5s.8-2.2 1-3c.5-1.9 2-4 2-4s.3.2 1.3.8C38.1 4 38 6 38 6v2l1.6-.6c.3.4.4.6.4.6z"/>
      <path fill="#6d4c41" d="M35.9 29.6c0-.1-1.2-3.6-4.8-3.6-2.9 0-4 3.5-4 3.6l-.1.4.1.3c0 .1 1.2 2.7 4 2.7 3.4 0 4.7-2.5 4.7-2.6l.2-.4-.1-.4zm-15 0c0-.1-1.2-3.6-4.8-3.6-2.9 0-4 3.5-4 3.6l-.1.4.1.3c0 .1 1.2 2.7 4 2.7 3.4 0 4.7-2.5 4.7-2.6l.2-.4-.1-.4z"/>
      <path fill="#8d6e63" d="M13.1 9l.9 1c-2 3-2 12-2 12l-1-7.7c-.1-1.4.3-2.9 1.1-4.1l1-1.2zM24 5v4c0 .7-.2 1.3-.4 1.9l-1.3 2.6c-.2.3-.3.7-.3 1.1V18l-.9-3.2c-.1-.5-.1-1 .1-1.5l1.4-3.2c.3-.7.3-1.4 0-2.1L21 4c.8.6 3 1 3 1zm9 1v9l-1-3-.6.6c-.3.3-.5.6-.6.9L29 18v-1.4c0-2.1.5-4.1 1.5-5.9.3-.6.5-1.2.5-1.9V4c0 2.2 1.5 3.9 2 2zM29.4.7l-1.6 4.9c-.5 1.6-.9 3.2-1 4.9L26 20V9.3c0-.9 0-1.7.2-2.6L27 0s1.4.2 2.4.7zm10.2 6.7c-.1.9-.5 1.7-.9 2.4-1.1 1.8-1.7 3.8-1.7 5.8V21l-.9-6.5c-.2-1.6 0-3.1.5-4.6L38 6c.8.5 1.3 1.1 1.6 1.4zM19 14.6V20l-.9-5.3c-.1-.5-.3-.9-.7-1.3L17 13l-.3.5c-.5 1-.7 2-.7 3.1V19l-.8-2.3c-.3-1.1-.3-2.3 0-3.4l.6-2.3.8-4H18v4.4c0 .4.1.7.3 1.1l.5 1c.1.3.2.7.2 1.1z"/>
      <path fill="#689f38" d="M13.7 3.3c-.6-.9-3.1-1.3-3.1-1.3s.8 1.5 1.5 2.5c.4.5 1 .7 1.5.4.4-.4.5-1.1.1-1.6zm2.5-1c.7-.9 3.2-1.3 3.2-1.3s-.8 1.5-1.5 2.5c-.4.5-1 .7-1.5.4-.5-.4-.5-1.1-.2-1.6z"/>
      <path fill="#6d4c41" d="M20 39.3s1.8-.3 3.6-.2c1.8.1 3.4.9 4.4.7 0 0-1.6 2.4-4 2.2s-3.2-1.1-4-2.7z"/>
      <path fill="#490c0c" d="M35 29.9S34 27 31.1 27c-2.3 0-3.1 2.9-3.1 2.9s.9 2.1 3.1 2.1c2.9 0 3.9-2.1 3.9-2.1zm-15 0S19 27 16.1 27c-2.3 0-3.1 2.9-3.1 2.9s.9 2.1 3.1 2.1c2.9 0 3.9-2.1 3.9-2.1z"/>
      <path fill="#424242" d="M34.3 29.5c0 .7-.3 1.4-.7 1.9-.6.3-1.4.6-2.5.6-.5 0-.9-.1-1.2-.3-.7-.5-1.1-1.3-1.1-2.3 0-.7.3-1.3.7-1.8.4-.4 1-.7 1.7-.7 1.4 0 2.3.6 2.9 1.3.1.5.2.9.2 1.3zm-15 0c0 .7-.3 1.4-.7 1.9-.6.3-1.4.6-2.5.6-.5 0-.9-.1-1.2-.3-.7-.5-1.1-1.3-1.1-2.3 0-.7.3-1.3.7-1.8.4-.4 1-.7 1.7-.7 1.4 0 2.3.6 2.9 1.3.1.5.2.9.2 1.3z"/>
      <path fill="#e0e0e0" d="M31 28a1 1 0 100 2 1 1 0 100-2zm-15 0a1 1 0 100 2 1 1 0 100-2z"/>
    </symbol>
    <symbol viewBox="0 0 48 48" id="icon-hawkeye">
      <path fill="#6a1b9a" d="M34 38.238V26H14v12.238c0 1.065-.575 2.034-1.484 2.589C9.067 42.933 6 46 6 46h36s-3.067-3.067-6.516-5.173C34.575 40.272 34 39.304 34 38.238z"/>
      <path fill="#ffb74d" d="M24 12H12v20.639a3 3 0 001.024 2.258l6.127 5.361c.548.478 1.25.742 1.976.742h5.746c.727 0 1.429-.264 1.976-.742l6.127-5.361A3 3 0 0036 32.639V12H24z"/>
      <path fill="#6a1b9a" d="M24 2C12.29 2 12 12 12 12v20.639a3 3 0 001.024 2.258L15 36.625V28l9-4 9 4v8.625l1.976-1.729A2.997 2.997 0 0036 32.639V12S35.71 2 24 2z"/>
      <path fill="none" stroke="#fb8c00" stroke-miterlimit="10" stroke-width="2" d="M20 33.8s1.6-.8 4-.8 4 .8 4 .8"/>
      <path fill="#6a1b9a" d="M36 32.639V25s-1.552 1.195-2 1.667c-.745.784-1 1.251-1 2.333v7.625l1.976-1.729A2.997 2.997 0 0036 32.639zm-24 0V25s1.552 1.195 2 1.667c.745.784 1 1.251 1 2.333v7.625l-1.976-1.729A2.997 2.997 0 0112 32.639z"/>
      <path fill="#7b1fa2" d="M27 2.25V7h-6V2.25c-1.14.2-2.13.51-3 .91V19h3v-9h6v9h3V3.16c-.87-.4-1.86-.71-3-.91z"/>
      <path fill="#8e24aa" d="M29 14c-4 4-5 6-5 6s-1-2-5-6c-3-3-8-6-12-12 0 0 1 11 3 21 2 4 5 7 5 7l9-6 9 6s3-3 5-7c2-10 3-21 3-21-4 6-9 9-12 12z"/>
      <path fill="#eee" d="M22 22.917S20.657 24 19 24s-3-.902-3-1.083c0-.897.343-2.167 2-2.167s4 2.167 4 2.167zm4 0S27.343 24 29 24s3-.812 3-1.083c0-.897-.343-2.167-2-2.167s-4 2.167-4 2.167z"/>
      <path fill="#424242" d="M23 23c-3.375-1.333-4.063-4-6.531-4S14 22 14 22s.844-1 2.25-1c2.25 0 3.937 2 6.75 2zm2 0c3.375-1.333 4.063-4 6.531-4S34 22 34 22s-.844-1-2.25-1c-2.25 0-3.938 2-6.75 2z"/>
      <path fill="#424242" d="M18 23a1.001 1.001 0 101-1c-.552 0-1 .449-1 1m12 0a1.001 1.001 0 01-2 0 1.001 1.001 0 012 0"/>
    </symbol>
    <symbol viewBox="0 0 48 48" id="icon-human-torch">
      <path fill="#BF360C" d="M15 28c0 2.8-1.1 6-3 6s-4-3.2-4-6 1.6-4 3.5-4 3.5 1.2 3.5 4zm18 0c0 2.8 1.1 6 3 6s4-3.2 4-6-1.6-4-3.5-4-3.5 1.2-3.5 4z"/>
      <path fill="#FF6E40" d="M37 27.4C37 36.5 30.1 46 24 46s-13-9.5-13-18.6 5.8-16.5 13-16.5 13 7.4 13 16.5z"/>
      <path fill="#FFEA00" d="M27 29l7-2s-1.5 4-4 4-3-2-3-2zm-6 0l-7-2s1.5 4 4 4 3-2 3-2z"/>
      <path fill="#DD2C00" d="M7.1 19c0-1.6.8-2.6 1-4 .2-.9-.7-4.2-2-4 3.9 0 4.4 2 4.9 3 0-1.6 2.6-6.7 1-10 4.4 2.3 3.3 4 5.3 5.7 1.3 1.3.8-1.7 1.1-3.1.6-2.3 3.1-4.1 5.7-4.6-1.3 1.6-2.2 5.7 0 7 1.6-5.2 6.1-6.8 9-7-1.6.8-3.1 3.4-3.7 5-.2.6-.2 2 .7 2 1.1 0 3-1.3 3-3 2.4 2.7-.6 5.2 1 6 1.5.6 3.2-6.3 3-8 3.6 5.6-1.8 11.3 1 12 1.2.3 1.9-3.1 1-5 2.8 2.8 2.5 10.6-.4 13.1-.9.8-1.6 1.7-1.6 2.9-2.9-1.7-1.9-3.7-1.9-5.4-.2-4.3-1.2-4.7-4.1-6.6.5 1.6-.9 2.3 0 5-.7-.9-2.4-1.7-3.1-2.7-1.2-1.2-1-2.3-1.9-4.3-.5 2.5-4.4 2-4 7-2.5-2-1.8-4.9-2-6-1.8 1.9-3.1 2.9-2 6-2-.5-2.8-1.4-3-3-6.6 7-.2 5.8-4 11 0-4.1-4-5.7-4-9z"/>
    </symbol>
    <symbol viewBox="0 0 48 48" id="icon-jean-grey">
      <path fill="#e64a19" d="M11.807 19.004S7 18 7 13C7 7 12 2 19 2c16 0 21 12.091 21 20 0 8.062 7 8.326 7 15 0 7-3 8-3 8H26l-.001-26-14.192.004z"/>
      <path fill="#ff6f00" d="M37.68 36.67c.1 1.81-.28 3.71-1.14 5.35-.56 1.11-1.31 2.1-2.17 2.98h-2.72c1.42-1 2.65-2.25 3.49-3.73.79-1.38 1.17-2.95 1.16-4.58.04-1.66-.18-3.28-.8-4.82-.29-.78-.66-1.57-.95-2.41-.29-.84-.5-1.71-.63-2.58s-.19-1.74-.2-2.61c-.01-.88.03-1.73-.02-2.57-.25-3.38-1.2-6.78-3.09-9.66 2.02 2.79 3.16 6.17 3.57 9.62.1.87.11 1.74.16 2.58.07.84.17 1.68.34 2.5.18.82.42 1.62.74 2.39.31.77.71 1.52 1.08 2.32.76 1.62 1.12 3.46 1.18 5.22z"/>
      <path fill="#ff6f00" d="M42.42 40.28c-.33 1.66-.98 3.29-1.93 4.72h-2.26c.25-.28.49-.57.71-.86.93-1.23 1.6-2.67 1.98-4.19.36-1.51.5-3.16.29-4.68-.19-1.55-.97-2.89-1.96-4.24-.99-1.34-1.91-2.91-2.24-4.61-.19-.84-.27-1.7-.29-2.55 0-.86.03-1.66-.05-2.48-.28-3.27-1.23-6.56-3.06-9.35 1.97 2.7 3.08 5.97 3.54 9.3.11.83.12 1.7.17 2.5.06.82.19 1.63.4 2.4.41 1.57 1.29 2.9 2.34 4.18.51.65 1.05 1.34 1.49 2.11.44.78.76 1.63.93 2.51.35 1.77.26 3.51-.06 5.24z"/>
      <path fill="#bf360c" d="M25 29h3c0 3 2 8 2 11s-2 5-2 5h-3V29z"/>
      <path fill="#e64a19" d="M10 13s-8 .624-8 7c0 7 2 7 2 13 0 1.3-2 4-2 6 0 5 4 6 7 6h6l-5-32z"/>
      <path fill="#0d47a1" d="M10 24.75S9.693 22 7.003 22c-1.003 0-.999 2.731-.999 3.5 0 1 .999 2.487.999 3v.75c0 1 1.499 2.75 2.997 2.75v-7.25zm18.004 0S28.311 22 31.001 22c1.003 0 .999 2.731.999 3.5 0 1-.999 2.487-.999 3v.75c0 1-1.499 2.75-2.997 2.75v-7.25z"/>
      <path fill="#ff9800" d="M19 37h-7v8h14v-8z"/>
      <path fill="#ffb74d" d="M30 16.99v14.36c0 3.43-1.78 6.65-4.78 8.61l-.13.09-3.17 2.09a5.374 5.374 0 01-5.84 0l-3.17-2.09-.13-.09C9.78 38 8 34.78 8 31.35V16.99h22z"/>
      <path fill="#d32f2f" d="M20 34c-.75 0-1 1-1 1s-.042-1-1-1-3 1-3 1 2.2 2 4 2 4-2 4-2-2.25-1-3-1z"/>
      <path fill="#efebe9" d="M22 26s.634-2.97 3.171-2.97c2.225 0 2.829 1.32 2.829 1.32S27.073 26 25.463 26H22zm-6.001 0s-.634-2.97-3.171-2.97c-2.225 0-2.829 1.32-2.829 1.32S10.926 26 12.536 26h3.463z"/>
      <path fill="#2e7d32" d="M26 24.497a1.5 1.5 0 11-3 0c0-.24 2.401-1.244 2.61-1.014.243.267.39.622.39 1.014zm-14.001.003c0 .83.67 1.5 1.5 1.5s1.5-.67 1.5-1.5c0-.24-2.368-1.26-2.573-1.052-.265.27-.427.64-.427 1.052z"/>
      <path fill="#424242" d="M24.5 24a.5.5 0 100 1 .5.5 0 100-1zm-11 0a.5.5 0 100 1 .5.5 0 100-1z"/>
      <path fill="#0d47a1" d="M28 14a2 2 0 012 2v15.35c0 3.43-1.78 6.65-4.78 8.61l-.13.09L26 31l2-4v-8c-3 0-9 4-9 4s-6-4-9-4v8l2 4 .91 9.05-.13-.09C9.78 38 8 34.78 8 31.35V16a2 2 0 012-2h18z"/>
      <path fill="#ba68c8" d="M23 19l-4 2-4-2v-3h8z"/>
      <g fill="#424242">
        <path d="M22 25.97S22.634 23 25.171 23C27.396 23 28 24.32 28 24.32s0-.33-3-.33c-1.61 0-3 1.98-3 1.98z"/>
        <path d="M20 24c2.7-1.25 4.025-4 6-4s2.999 3.062 2.999 3.062S28 21.578 26 21.578c-1.8 0-3.75 2.422-6 2.422zm-4.001 1.97S15.365 23 12.828 23c-2.225 0-2.829 1.32-2.829 1.32s0-.33 3-.33c1.61 0 3 1.98 3 1.98z"/>
        <path d="M17.999 24c-2.7-1.25-4.025-4-6-4S9 23.062 9 23.062s.999-1.484 2.999-1.484c1.8 0 3.751 2.422 6 2.422z"/>
      </g>
    </symbol>
    <symbol viewBox="0 0 48 48" id="icon-logan-x-men">
      <path fill="#ffa726" d="M34 22.8s.3-2.8 3-2.8c1 0 1 2.7 1 3.5 0 1-1 2.5-1 3v.8c0 1-1.5 2.8-3 2.8v-7.3zm-20 0s-.3-2.8-3-2.8c-1 0-1 2.7-1 3.5 0 1 1 2.5 1 3v.8c0 1 1.5 2.8 3 2.8v-7.3z"/>
      <path fill="#ffa726" d="M34 38.2V26H14v12.2c0 1.1-.6 2-1.5 2.6C9.1 42.9 6 46 6 46h36s-3.1-3.1-6.5-5.2c-.9-.5-1.5-1.5-1.5-2.6z"/>
      <path fill="#424242" d="M35.5 40.8C34 44 24 44 24 44s-10 0-11.5-3.2c-1.8 1.1-3.4 2.4-4.6 3.4C10 45 11 46 11 46h26s1-1 3.1-1.8c-1.2-1-2.9-2.3-4.6-3.4z"/>
      <path fill="#ffb74d" d="M24 4C12.3 4 13 14 13 14v19.6c0 .9.4 1.7 1 2.3l6.1 5.4c.5.5 1.2.7 2 .7h3.8c.7 0 1.4-.3 2-.7l6.1-5.4c.7-.6 1-1.4 1-2.3V26 14s.7-10-11-10z"/>
      <path fill="#fb8c00" d="M20.4 34.7l-.9-1.8c.1 0 1.8-.9 4.4-.9 2.6 0 4.4.9 4.4.9l-.9 1.8S26 34 23.8 34c-1.9 0-3.3.7-3.4.7z"/>
      <path fill="#ffac3e" d="M35 13.3V24s-1-1-4-1V9.2c0-2.2-2-4.4-2-4.4 5.2 1.9 5.9 6.7 6 8.5zm-22 0V24s1-1 4-1V9.2c0-2.2 2-4.4 2-4.4-5.2 1.9-5.9 6.7-6 8.5z"/>
      <path fill="#424242" d="M35 4c-4.1 0-5.6-2-11-2s-6.9 2-11 2c-2 0-5-1-5-1 0 12 3 17 3 17h.4c.9.2 1.6 1 1.6 2v11.6c0 .9.4 1.7 1 2.3l2 1.7V30c0-1.1-.3-1.5-1-2.3V18c0-1.9-1-1-1-4 0-1.1.3-2.3.5-3.1.2-.7 1-1 1.6-.7 1.5.7 4.5 1.9 7.9 1.9s6.3-1.1 7.9-1.9c.7-.3 1.4 0 1.6.7.3.9.5 2.1.5 3.1 0 3-1 2.1-1 4v9.7c-.7.8-1 1.3-1 2.3v7.6l2-1.7c.7-.6 1-1.4 1-2.3V22c0-1 .7-1.8 1.6-2h.4s3-5 3-17c0 0-3 1-5 1z"/>
      <path fill="#eee" d="M22 23.9s-1.3.1-3 .1-3-.9-3-1.1c0-.9.3-2.2 2-2.2s4 3.2 4 3.2zm4 0s1.3.1 3 .1 3-.8 3-1.1c0-.9-.3-2.2-2-2.2s-4 3.2-4 3.2z"/>
      <path fill="#424242" d="M23 24c-3-1-4-5-6-5-3 0-3 3.8-3 3.8s1-1.8 2-1.8c2 0 3 3 7 3zm2 0c3-1 4-5 6-5 3 0 3 3.8 3 3.8S33 21 32 21c-2 0-3 3-7 3z"/>
      <path fill="#424242" d="M18 23c0 .6.4 1 1 1s1-.4 1-1-.4-1-1-1-1 .4-1 1m12 0c0 .6-.4 1-1 1s-1-.4-1-1 .4-1 1-1 1 .4 1 1"/>
    </symbol>
    <symbol viewBox="0 0 48 48" id="icon-luke-cage">
      <path fill="#8a470c" d="M36 23.8s1-3.8 3-3.8c1 0 1 2 1 5 0 2-2 6-4 6v-7.2zm-24 0S11 20 9 20c-1 0-1 2-1 5 0 2 2 6 4 6v-7.2z"/>
      <path fill="#c16e14" d="M24 2c-7.2 0-13 5.8-13 13v20.6c0 .9.4 1.7 1 2.3l6.1 6.4c.5.5 1.2.7 2 .7h7.8c.7 0 1.4-.3 2-.7l6.1-6.4c.7-.6 1-1.4 1-2.3V15c0-7.2-5.8-13-13-13z"/>
      <path fill="#a0530e" d="M37 35.6V27s-1.6 1.2-2 1.7c-.7.8-1 1.3-1 2.3v8.9l2-2.1c.6-.5 1-1.3 1-2.2zm-26 0V27s1.6 1.2 2 1.7c.7.8 1 1.3 1 2.3v8.9l-2-2.1c-.6-.5-1-1.3-1-2.2zm6-31.5S15 6 15 8.3V22h4l-4 2c-3 0-4 1-4 1V15c0-4.6 2.4-8.6 6-10.9zm14 0s2 1.9 2 4.2V22h-3l3 2c3 0 4 1 4 1V15c0-4.6-2.4-8.6-6-10.9z"/>
      <path fill="#efebe9" d="M29.6 25H27v-.5c0-1.4 1.1-2.5 2.5-2.5s2.9 1.5 3.5 2c-.4.6-.9 1-3.4 1zm-11.2 0H21v-.5c0-1.4-1.1-2.5-2.5-2.5s-2.9 1.5-3.5 2c.4.6.9 1 3.4 1z"/>
      <path fill="#6d4c41" d="M29.5 22a1.5 1.5 0 100 3 1.5 1.5 0 100-3zm-11 0a1.5 1.5 0 100 3 1.5 1.5 0 100-3z"/>
      <path fill="#263238" d="M29.5 23a.5.5 0 100 1 .5.5 0 100-1zm-11 0a.5.5 0 100 1 .5.5 0 100-1z"/>
      <path fill="#a0530e" d="M20.5 37.8l-1.1-1.7c.1 0 1.9-1.2 4.5-1.2s4.5 1.1 4.5 1.2l-1.1 1.7s-1.4-.8-3.5-.8c-1.9 0-3.3.8-3.3.8z"/>
      <path fill="#424242" d="M23 25c-3.4-1.3-3-5-6.5-5-2.5 0-2.5 3-2.5 3s.8-1 2.3-1c2.7 0 3.9 3 6.7 3zm2 0c3.4-1.3 3-5 6.5-5 2.5 0 2.5 3 2.5 3s-.8-1-2.3-1c-2.7 0-3.9 3-6.7 3zM27.8 32.1l-.2-.1c-1.7.1-2.4 1-3.6 1s-1.8-.9-3.6-1l-.2.1C17 33.2 15 36.3 15 39.6v.1c0 .9.3 1.7.9 2.3l2.2 2.3c.6.5 1.3.7 2 .7h7.7c.7 0 1.4-.3 2-.7L32 42c.6-.7 1-1.5 1-2.5 0-3.3-2.1-6.3-5.2-7.4zM28 43c-3 0-2-3-4-3s-1 3-4 3c-2 0-3-2-3-5s4-4 7-4 7 1 7 4-1 5-3 5z"/>
    </symbol>
    <symbol viewBox="0 0 48 48" id="icon-magneto">
      <path fill="#ffb74d" d="M24 4C12.3 4 13 14 13 14v19.6c0 .9.4 1.7 1 2.3l6.1 5.4c.5.5 1.2.7 2 .7h3.8c.7 0 1.4-.3 2-.7l6.1-5.4c.7-.6 1-1.4 1-2.3V26 14s.7-10-11-10z"/>
      <path fill="#fb8c00" d="M28.6 34.9S26.7 34 24 34c-2.7 0-4.5.9-4.6.9l-.9-1.8c.1 0 2.2-1.1 5.4-1.1s5.4 1.1 5.4 1.1l-.7 1.8z"/>
      <path fill="#ffac3e" d="M35 33.6V26s-1.6 1.2-2 1.7c-.7.8-1 1.3-1 2.3v7.6l2-1.7c.6-.6 1-1.4 1-2.3zm-22 0V26s1.6 1.2 2 1.7c.7.8 1 1.3 1 2.3v7.6l-2-1.7c-.6-.6-1-1.4-1-2.3z"/>
      <path fill="#b71c1c" d="M36 23c0-2.8-2.2-5-5-5-3.2 0-5.7 2.6-7 4.3-1.3-1.6-3.8-4.3-7-4.3-2.8 0-5 2.2-5 5s2.2 5 5 5c.6 0 1.3-.1 2-.3v17L8 42V18.1c0-2.1.3-4.1 1-6.2C11.9 4.1 18 1 24 1c7 0 12.1 3.1 15 10.9.8 2 1 4.1 1 6.1v23.9l-11 2.8v-17c.7.2 1.4.3 2 .3 2.8 0 5-2.2 5-5z"/>
      <path fill="#fafafa" d="M26 24h3c1.7 0 3-.6 3-.7 0-.6-.3-1.3-2-1.3s-4 2-4 2zm-4 0h-3c-1.7 0-3-.6-3-.7 0-.6.3-1.3 2-1.3s4 2 4 2z"/>
      <path fill="#424242" d="M25 24s.5-1.3 2-2c2-1 3-2 4-2 2 0 3 2 3 2s-1.6-.8-2.5-.8C30 22 27 24 26 24h-1zm-2 0s-.5-1.3-2-2c-2-1-3-2-4-2-2 0-3 2-3 2s1.6-.8 2.5-.8C18 22 21 24 22 24h1z"/>
      <path fill="#d83232" d="M27 13.2s3.6-1 3-5.2c0 0 2.3-1.5 0-4 0 0 4 1 4 5 0 2-2 6-7 6v-1.8zm-6 0s-3.6-1-3-5.2c0 0-2.3-1.5 0-4 0 0-4 1-4 5 0 2 2 6 7 6v-1.8z"/>
      <path fill="#d83232" d="M24 10l4 2c0 6-4 9-4 9V10z"/>
      <path fill="#ba68c8" d="M37 41c-4 2-6 2-6 2l2-3-3 2V30l3 2-2-3c1.2 0 2.4-.4 3.3-1l-.3 2s2-3.6 2.2-4c.5-.9.8-1.9.8-3 0-1.8-.8-3.4-2-4.5.9-.7 2 .1 2 .1s-1-3-6-1.7l1-1c-5 0-8 5-8 5s-3-5-8-5l1 1c-5-1.3-6 1.7-6 1.7s1.1-.8 2-.1c-1.2 1.1-2 2.7-2 4.5 0 1.1.3 2.1.8 3 .2.4 2.2 4 2.2 4l-.3-2c.9.6 2.1 1 3.3 1l-2 3 3-2v12l-3-2 2 3s-2 0-6-2c-2-1-3-1-3-1v3l12 3V26.4c-1.1.4-2.2.6-3 .6-2.2 0-4-1.8-4-4s1.8-4 4-4c4 0 7 5 7 5s3-5 7-5c2.2 0 4 1.8 4 4s-1.8 4-4 4c-.8 0-1.9-.2-3-.6V46l12-3v-3s-1 0-3 1z"/>
      <g fill="#ea4949">
        <path d="M32 8c0 1.7-1.5 5.1-5 6v-.8s3.6-1 3-5.2c0 0 2.3-1.5 0-4 1 .8 2 2 2 4zM16 8c0 1.7 1.5 5.1 5 6v-.8s-3.6-1-3-5.2c0 0-2.3-1.5 0-4-1 .8-2 2-2 4z"/>
        <path d="M20 12l4-2 4 2c0 6-4 9-4 9s-4-3-4-9z"/>
      </g>
    </symbol>
    <symbol viewBox="0 0 48 48" id="icon-mystique">
      <path fill="#a31616" d="M13 28h22v16H13z"/>
      <path fill="#1565c0" d="M24 36h-7v8h14v-8z"/>
      <path fill="#1976d2" d="M23.562 12.175l-8.822.529c-.447.179-.74.612-.74 1.094v15.903c0 3.321 1.62 6.434 4.341 8.338l3.003 2.102a4.633 4.633 0 005.312 0l3.003-2.102A10.178 10.178 0 0034 29.701V13.798c0-.482-.293-.915-.741-1.094l-8.822-.529a1.181 1.181 0 00-.875 0z"/>
      <path fill="#bf360c" d="M25 33c-.75 0-1 1-1 1s-.042-1-1-1-3 1-3 1 2.2 2 4 2 4-2 4-2-2.25-1-3-1z"/>
      <path fill="#fff8e1" d="M27 25s.634-3 3.171-3C32.396 22 33 23.333 33 23.333S32.073 25 30.463 25H27zm-6 0s-.634-3-3.171-3C15.604 22 15 23.333 15 23.333S15.927 25 17.537 25H21z"/>
      <path fill="#424242" d="M22 24c-2.7-1.25-4.139-4-6.114-4S13 23.062 13 23.062s1-1.484 3-1.484c1.8 0 3.75 2.422 6 2.422zm4 0c2.7-1.25 4.025-4 6-4s2.999 3.062 2.999 3.062S34 21.578 32 21.578c-1.8 0-3.75 2.422-6 2.422z"/>
      <path fill="#c62828" d="M41 29c0-4 1-6 1-11 0-6-5-16-14-16-3 0-4 2-4 2s-1-2-4-2C11 2 6 12 6 18c0 5 1 7 1 11 0 7.76-4 6-4 15h11s0-24.29.01-24.67C14.07 15.93 15 14 17 14s4.16 1 7 1 5-1 7-1 2.93 1.93 2.99 5.33C34 19.71 34 44 34 44h11c0-9-4-7.24-4-15z"/>
      <path fill="#fafafa" d="M24.211 12h-.421C21.811 12 20 13.385 20 15.692c0 1.615.632 2.077.632 2.077.063.069.126.138.211.208v.485c0 .767.862 1.052 1.158 1.128v.628a.78.78 0 00.782.782h2.435c.432 0 .782-.35.782-.783v-.627c.295-.076 1.158-.362 1.158-1.128v-.485c.084-.069.147-.138.211-.208 0 0 .632-.692.632-2.077C28 13.385 26.189 12 24.211 12zm-2.358 4.985c.168-.6.674-.9 1.242-.669.463.185.632.854.484 1.292-.189.692-.758.969-1.432.762-.252-.093-.568-.508-.294-1.385zm2.589 2.93c-.232 0-.4-.438-.442-.623 0 .231-.168.623-.442.623-.168 0-.295-.115-.295-.323 0-.438.463-1.292.737-1.362.274.115.737.923.737 1.362 0 .208-.126.323-.295.323zm1.39-1.546c-.653.231-1.221-.069-1.432-.761-.126-.485.042-1.154.505-1.292.526-.185 1.074.069 1.221.669.274.877 0 1.269-.294 1.384z"/>
    </symbol>
    <symbol viewBox="0 0 48 48" id="icon-rogue">
      <path fill="#424242" d="M26 5c15 0 15 13 15 13l2 27H5l2-27S8 3 22 3c3 0 4 2 4 2z"/>
      <path fill="#212121" d="M13 35h22v10H13z"/>
      <path fill="#ff9800" d="M24 37h-7v8h14v-8z"/>
      <path fill="#ffb74d" d="M24 10l-10 5c0 3.503.008 20.151.008 20.151 0 .817.339 1.594.931 2.132l7.099 4.994a3.02 3.02 0 003.925 0l7.099-4.994a2.884 2.884 0 00.931-2.132s.008-16.648.008-20.151L24 10z"/>
      <path fill="#b71c1c" d="M25 34c-.75 0-1 1-1 1s-.042-1-1-1-3 1-3 1 2.2 2 4 2 4-2 4-2-2.25-1-3-1z"/>
      <path fill="#efebe9" d="M27 26s.634-3 3.171-3C32.396 23 33 24.333 33 24.333S32.073 26 30.463 26H27zm-6 0s-.634-3-3.171-3C15.604 23 15 24.333 15 24.333S15.927 26 17.537 26H21z"/>
      <path fill="#43a047" d="M31 24.5c0 .83-.67 1.5-1.5 1.5s-1.5-.67-1.5-1.5c0-.24.05-.46.16-.66.4-.4.92-.72 1.61-.81h.03c.69.14 1.2.74 1.2 1.47zm-14 0c0 .83.67 1.5 1.5 1.5s1.5-.67 1.5-1.5c0-.24-.05-.46-.16-.66-.4-.4-.92-.72-1.61-.81h-.03c-.69.14-1.2.74-1.2 1.47z"/>
      <path fill="#263238" d="M29.5 24a.5.5 0 100 1 .5.5 0 100-1zm-11 0a.5.5 0 100 1 .5.5 0 100-1z"/>
      <path fill="#424242" d="M27 26s.634-3 3.171-3C32.396 23 33 24.333 33 24.333S33 24 30 24c-1.61 0-3 2-3 2zm-6 0s-.634-3-3.171-3C15.604 23 15 24.333 15 24.333S15 24 18 24c1.61 0 3 2 3 2z"/>
      <path fill="#424242" d="M26 24s1.013-.536 1.364-.686c.657-.282 1.803-.674 2.428-.814a7.251 7.251 0 011.541-.187c.977-.001 2.667.717 2.667.717V22s-1-1-2-1c-3 0-4.413 1.147-5.052 1.785C26.302 23.418 26 24 26 24zm-4 0s-1.013-.536-1.364-.686c-.657-.282-1.803-.674-2.428-.814a7.251 7.251 0 00-1.541-.187c-.977-.001-2.667.717-2.667.717V22s1-1 2-1c3 0 4.413 1.147 5.052 1.785C21.698 23.418 22 24 22 24z"/>
      <path fill="#388e3c" d="M35 18s-5 1-11 1-11-1-11-1l4-7h13l5 7z"/>
      <path fill="#eee" d="M38 45h-4V24c0-8-3.998-11-7-11-2 0-3 1-3 1s-1-2-4-2-6 3-6 12v21h-4l1-24S11 8 22 8c2.14 0 3 2 3 2 12 0 12 11 12 11l1 24z"/>
    </symbol>
    <symbol viewBox="0 0 48 48" id="icon-s-h-i-e-l-d">
      <path fill="#424242" d="M24 44C12.972 44 4 35.028 4 24S12.972 4 24 4s20 8.972 20 20-8.972 20-20 20zm0-38C14.075 6 6 14.075 6 24s8.075 18 18 18 18-8.075 18-18S33.925 6 24 6z"/>
      <path fill="#424242" d="M38.34 14.87l-4.07 4.58h-.01l-.09.11L24 31 9.67 14.87c.71-1.13 1.56-2.17 2.52-3.09L20 18s1.12-2.81 2.09-4.82C22.86 11.56 23.71 11 25 11c2 0 2.98.2 3 1h-1c-1.11 0-1.06 1.17-.9 1.56C26.6 14.79 28 18 28 18l7.81-6.22c.96.92 1.81 1.96 2.53 3.09zm.68 17.1c-.75 1.41-1.69 2.7-2.79 3.83l-6.83-8.27 2.67-3.15 6.95 7.59zm1.91-6.5c-.17 2.08-.72 4.05-1.58 5.84l-6.81-7.5 2.76-3.26 5.63 4.92zM41 24c0 .2 0 .39-.01.59l-5.21-4.6 3.28-3.88A16.87 16.87 0 0141 24z"/>
      <path fill="#424242" d="M33.86 37.85C31.08 39.83 27.68 41 24 41s-7.08-1.17-9.86-3.15l6.5-9.42L24 32l3.36-3.57 6.5 9.42zM18.6 27.53l-6.84 8.26c-1.1-1.13-2.03-2.42-2.78-3.82l6.95-7.59 2.67 3.15zm-3.14-3.72l-6.81 7.5c-.86-1.79-1.41-3.76-1.58-5.84l5.63-4.92 2.76 3.26zm-3.24-3.82l-5.21 4.6C7 24.39 7 24.2 7 24c0-2.85.7-5.54 1.94-7.89l3.28 3.88zm22.05-.54l-.1.11-.1-.09z"/>
    </symbol>
    <symbol viewBox="0 0 48 48" id="icon-spiderman-head">
      <path fill="#FF3D00" d="M24 3C15.7 3 9 7.9 9 19.5S15.7 45 24 45s15-13.9 15-25.5S32.3 3 24 3z"/>
      <path fill="#37474F" d="M36 12s-.6 7.2-11.2 13c.6 6.1 7.5 8.6 7.5 8.6l1.1-1.1C44.2 21.8 36 12 36 12zM14.5 32.4l1.1 1.1s6.9-2.4 7.5-8.6C12.6 19.2 12 12 12 12s-8.2 9.8 2.5 20.4z"/>
      <path fill="#37474F" d="M25.1 25.6L34 6.4c-.5-.4-1.1-.9-1.6-1.2l-8.4 18-8.4-18c-.6.4-1.1.8-1.6 1.2l8.9 19.2L16 40.5c.5.6 1 1.1 1.5 1.6L24 28l6.5 14c.5-.5 1-1 1.5-1.6l-6.9-14.8z"/>
      <path fill="#37474F" d="M13.4 17.9l-.9-1.8s3.8-1.9 3.4-5l-.2-1.5 1.4.4c4 1 5.9-1.5 5.9-1.6l1.6 1.2c-.1.1-2.3 3.2-6.8 2.6-.2 3.7-4.2 5.6-4.4 5.7z"/>
      <path fill="#37474F" d="M34.6 17.9c-.2-.1-4.2-2-4.6-5.7-4.5.5-6.7-2.5-6.8-2.6l1.6-1.2c.1.1 2 2.6 5.9 1.6l1.4-.4-.1 1.5c-.4 3.1 3.4 5 3.4 5l-.8 1.8z"/>
      <path fill="#37474F" d="M25 44.9c-.3 0-.7.1-1 .1s-.7 0-1-.1V3h2v41.9z"/>
      <path fill="#37474F" d="M23 41.3s-1.3-3.9-3.8-3.3l-.4-2c3.5-.7 5.5 2.7 6.2 4.7l-2 .6z"/>
      <path fill="#37474F" d="M25 41.3l-2-.6c.6-1.9 2.7-5.4 6.2-4.7l-.4 2c-2.6-.6-3.8 3.3-3.8 3.3z"/>
      <path fill="#FFF" d="M27 26s8.7-5 9.3-10c1 3.1 1.7 8.8-4.3 15-4.6-2.8-5-5-5-5zm-11 5c-6-6.2-5.3-11.9-4.3-15 .7 5 9.3 10 9.3 10s-.4 2.2-5 5z"/>
    </symbol>
    <symbol viewBox="0 0 48 48" id="icon-spiderman-old">
      <path fill="#455A64" d="M40.5 26.6c-2.3-.8-4.5-1.5-6.8-2.2-1.5-.5-5.1-1.4-5.1-1.4s6.1.1 8.5.2h1c1.1-.1 1.5-.3 1.6-1.5.2-1.5.3-3 .3-4.6 0-3.7-1.2-6.7-2.6-10.1C37 6.1 36 4 36 4s.9 3.5 1.4 9.4c.2 2 .3 3.7-.1 5.7-.4 1.6-.9 1.9-2.5 1.9H32c.1-.3 2-1.1 2-4 0-3.6-1.2-7.3-2.6-10.7-.4-1.1-2.1-4-2.4-4.3.2 1.3.4 2.5.6 3.8.6 3.8 1.8 7.8 1.4 11.7-.4 2.5-1.3 2.8-2 2.8-.9 0-2.2-.2-3.3-.3 1.3-.9 2.2-2.7 2.2-4.8 0-2.9-1.7-5.3-3.9-5.3s-3.9 2.4-3.9 5.3c0 2.1.9 3.9 2.2 4.8-1.1.1-2.4.3-3.3.3-.7 0-1.6-.3-2-2.8-.4-3.9.9-7.9 1.4-11.7.2-1.3.4-2.5.6-3.8-.3.3-2 3.2-2.4 4.3C15.2 9.7 14 13.4 14 17c0 2.9 1.9 3.7 2 4h-2.8c-1.6 0-2.2-.3-2.5-1.9-.4-2-.3-3.7-.1-5.7C11.1 7.5 12 4 12 4s-1 2.1-1.4 3C9.1 10.4 8 13.5 8 17.1c0 1.5.1 3.1.3 4.6.1 1.2.5 1.4 1.6 1.5.3 0 .7.1 1 0 2.5-.1 8.5-.2 8.5-.2s-3.6.9-5.1 1.4c-2.3.7-4.6 1.4-6.8 2.2-1.3.5-1.7 1-1.5 2.5.1 1 .2 2.1.5 3.1 1.2 4.4 2.9 8.3 5.3 12.1l1.2 1.8c-.8-3-3.7-10.5-3.7-15.4 0-.6-.1-1.2.4-1.6 1-.9 2.3-1.2 3.5-1.5-.1.8-.3 1.6-.3 2.4 0 1.1 0 1.8.2 2.8.9 4 2.8 7.7 4.9 11.2 0 0 .1 0 .1.1-.7-2.9-1.4-5.8-1.9-8.7-.4-2.2-.7-4.1-.4-6.4.3-2.6 2.8-3 2.8-2.9 0 .4-.1.7-.1 1.1-.4 4.2.2 8.2 2.2 11.8.5.9 1.1 1.7 1.9 2.4.5.4 1 .7 1.5.7s1-.2 1.5-.7c.7-.7 1.4-1.5 1.9-2.4 2-3.7 2.6-7.7 2.2-11.8 0-.4-.1-.7-.1-1.1 0 0 2.4.4 2.8 2.9.3 2.3.1 4.2-.4 6.4-.6 2.9-1.3 5.8-1.9 8.7.1 0 .1 0 .1-.1 2.1-3.5 4-7.2 4.9-11.3.2-1 .2-1.8.2-2.8 0-.8-.2-1.6-.3-2.4 1.2.3 2.5.6 3.5 1.5.5.4.4 1.1.4 1.6 0 4.9-2.9 12.4-3.7 15.4l1.2-1.8c2.4-3.8 4.1-7.8 5.3-12.1.3-1 .4-2 .5-3.1-.1-1.4-.4-1.9-1.7-2.4z"/>
    </symbol>
    <symbol viewBox="0 0 100 100" id="icon-storm-marvel">
      <path d="M95 62.969c0-5.035-1.409-9.892-4.076-14.047C89.665 46.96 89 44.812 89 42.71v-1.741a17.002 17.002 0 00-8.128-14.498C76.144 14.124 64.395 5.969 51 5.969a31.931 31.931 0 00-29.576 19.778A16.936 16.936 0 0012 40.969v3.361c0 1.907-.547 3.871-1.582 5.677C8.182 53.91 7 58.392 7 62.969 7 68.495 8.85 72.652 12 77c-.799 2.033-1.178 5.481-.886 7.7.768 5.837 5.574 10.542 11.427 11.189.912.1 43.656.142 44.083.142 12.782 0 12.815-.008 13.641-.225 4.873-1.275 8.51-5.227 9.492-10.314.419-2.17.297-4.339-.333-6.364C93.002 74.642 95 68.932 95 62.969z" opacity=".35"/>
      <path fill="#f2f2f2" d="M94 60.969c0-5.035-1.409-9.892-4.076-14.047C88.665 44.96 88 42.812 88 40.71v-1.741a17.002 17.002 0 00-8.128-14.498C75.144 12.124 63.395 3.969 50 3.969a31.931 31.931 0 00-29.576 19.778A16.936 16.936 0 0011 38.969v3.361c0 1.907-.547 3.871-1.582 5.677C7.182 51.91 6 56.392 6 60.969c0 5.526 1.756 10.904 4.905 15.253a13.05 13.05 0 00-.791 6.478c.768 5.837 5.574 10.542 11.427 11.189.912.1 43.656.142 44.083.142 12.782 0 12.815-.008 13.641-.225 4.873-1.275 8.51-5.227 9.492-10.314.419-2.17.297-4.339-.333-6.364C92.002 72.642 94 66.932 94 60.969z"/>
      <path fill="#d9eeff" d="M29.5 41c-.506 0-1.004.039-1.5.082V27c-6.627 0-12 5.373-12 12v3.361c0 2.874-.815 5.669-2.244 8.163C12.012 53.569 11 57.154 11 61c0 5.83 2.322 11.061 6.003 14.717a7.971 7.971 0 00-1.932 6.361c.472 3.585 3.424 6.475 7.018 6.871A8.002 8.002 0 0031 81c0-.028-.004-.054-.004-.082C40.512 80.093 48 71.5 48 61c0-11.046-8.283-20-18.5-20zM89 61c0-4.219-1.216-8.125-3.284-11.347C84.002 46.981 83 43.916 83 40.741V39c0-6.627-5.373-12-12-12v14.027c-.168-.005-.331-.027-.5-.027C60.283 41 52 49.954 52 61c0 10.13 6.974 18.48 16.01 19.798-.002.068-.01.134-.01.202 0 4.934 4.466 8.824 9.576 7.849 3.141-.599 5.666-3.134 6.272-6.274a7.976 7.976 0 00-1.41-6.31C86.448 72.597 89 67.124 89 61z"/>
      <path fill="#9ba7c5" d="M71 35H29l-6 54h54z"/>
      <path fill="#d47f56" d="M39 74h22v15H39z"/>
      <path fill="#40396e" opacity=".35" d="M39 74h22v15H39z"/>
      <path fill="#d47f56" d="M76.718 50.793c-1.564-1.998-4.336-1.146-5.577.629.716-3.758.383-6.363.383-9.384 0-13.249-9.475-21.434-21.101-22.006V20c-.142.003-.282.012-.424.016-.142-.005-.282-.014-.424-.016v.032c-11.625.573-21.101 8.757-21.101 22.006 0 3.021-.332 5.626.383 9.384-1.241-1.774-4.013-2.627-5.577-.629 2.25-2.874 4.978 15.206 1.502 11.748 2.348 2.336 3.587-.021 5.023-.504.012-.003-.034 5.537 2.195 8.963 2.565 3.942 11.908 12.679 17.577 13h.848c5.668-.322 15.01-10.058 17.575-14 2.229-3.426 2.185-7.966 2.195-7.962 1.435.482 2.674 2.84 5.023.504-3.475 3.459-.752-14.626 1.5-11.749z"/>
      <path fill="#d9eeff" d="M23 36v53h7V47s-1.681-23.538 14.996-10.495a8.097 8.097 0 0010.009 0C71.681 23.462 70 47 70 47v42h7V36C77 21.088 64.912 9 50 9S23 21.088 23 36z"/>
      <path fill="#40396e" d="M46 56s-2-12-14-8c0 0 2 8 14 8zM54 56s2-12 14-8c0 0-2 8-14 8zM50 29.232c-3.437 0-6.232-3.469-6.232-7.732s2.795-7.732 6.232-7.732 6.232 3.469 6.232 7.732-2.795 7.732-6.232 7.732zm0-12c-1.5 0-2.768 1.954-2.768 4.268S48.5 25.768 50 25.768s2.768-1.954 2.768-4.268S51.5 17.232 50 17.232z"/>
      <path fill="#40396e" d="M45 27s-9-4-9-10l-5.999 4.199C27.347 23.057 18 29 18 34l14-8s4 4 9 4l4-3zM56 27s9-4 9-10l5.999 4.199C73.653 23.057 83 29 83 34l-14-8s-4 4-9 4l-4-3z"/>
      <path fill="#d9eeff" d="M70 65.106v-4.245h7V89h-7V65.106z"/>
      <path fill="#40396e" d="M50 26c-22 0-28 17-28 17l1.951 13.007C24.632 60.549 26.753 66.753 30 70V54c0-12.979 8.678-23.5 20-23.5S70 41.021 70 54v16c3.247-3.247 5.368-9.451 6.049-13.993L78 43s-6-17-28-17z"/>
      <path fill="#40396e" d="M62.428 90.071c-16.578 0-39.748-.103-40.004-.131-4.271-.472-7.779-3.906-8.339-8.167a9.544 9.544 0 011.458-6.449C12.006 71.338 10 66.008 10 60.5c0-3.968 1.022-7.849 2.955-11.223C14.293 46.942 15 44.377 15 41.86V38.5a13.449 13.449 0 018.667-12.605A28.439 28.439 0 0150.5 7c12.347 0 23.122 7.776 27.022 19.421A13.502 13.502 0 0185 38.5v1.741c0 2.773.857 5.575 2.479 8.102C89.782 51.933 91 56.137 91 60.5c0 5.867-2.225 11.442-6.144 15.491 1.05 1.93 1.393 4.147.964 6.369-.735 3.809-3.33 6.646-6.94 7.591-.343.09-7.421.12-16.452.12zm-39.735-3.12c1.676.016 52.435.189 55.553.063 2.4-.679 4.126-2.621 4.628-5.223.353-1.832-.053-3.656-1.145-5.137l-.8-1.086.995-.91C85.786 71.127 88 65.966 88 60.5c0-3.788-1.053-7.431-3.046-10.536C83.021 46.952 82 43.591 82 40.241V38.5c0-4.173-2.475-7.949-6.306-9.622l-.629-.275-.204-.656C71.538 17.212 61.748 10 50.5 10a25.448 25.448 0 00-24.225 17.537l-.239.729-.73.232A10.464 10.464 0 0018 38.5v3.36c0 3.039-.844 6.12-2.442 8.909C13.884 53.689 13 57.055 13 60.5c0 5.168 2.027 10.144 5.56 13.652l1.003.996-.935 1.061a6.442 6.442 0 00-1.57 5.173c.38 2.889 2.746 5.222 5.635 5.569z"/>
      <path fill="#40396e" d="M44 50c1.333 0 2.005-1.625 1.047-2.552C44.476 46.896 43.79 46.369 43 46c-3.379-1.69-5.449-2.759-7.138-2.759C32.482 43.241 31 46 31 46l.037-.011a8.566 8.566 0 016.811.928C40.093 48.285 43.01 50 44 50zM55.498 50c.99 0 3.907-1.715 6.152-3.082a8.563 8.563 0 016.811-.928l.037.01s-1.482-2.759-4.862-2.759c-1.69 0-3.759 1.069-7.138 2.759-.79.369-1.476.896-2.047 1.448-.958.927-.286 2.552 1.047 2.552z"/>
      <path fill="#f2f2f2" d="M54 56s2.347-7.042 10.562-5.868a10.018 10.018 0 01-7.543 5.437L54 56zM46 56s-2.347-7.042-10.563-5.868a10.018 10.018 0 007.543 5.437L46 56z"/>
      <path fill="#70bfff" d="M43.899 52.734c-1.141-1.178-2.828-2.286-5.215-2.619A2.973 2.973 0 0038 52c0 .703.252 1.341.657 1.853.649.454 1.35.831 2.093 1.122.084.007.164.025.25.025 1.402 0 2.57-.966 2.899-2.266zM56.101 52.734A2.994 2.994 0 0059 55c.086 0 .166-.018.25-.025a10.03 10.03 0 002.093-1.122c.405-.512.657-1.15.657-1.853 0-.718-.263-1.368-.683-1.885-2.388.333-4.075 1.441-5.216 2.619z"/>
    </symbol>
    <symbol viewBox="0 0 48 48" id="icon-thanos">
      <path fill="#a3a3cd" d="M12 19.417s-.451-1.583-1.417-2.375-2.45-.209-2.386.958c.064 1.167-.129 2.542-.193 3.042s.58 2.208.451 2.625-.064 1.958 1.417 1.75c1.484-.209 2.128-6 2.128-6z"/>
      <path fill="#6b6aaf" d="M9.479 17.75s1.041.208 1.699 2.375c-.273 2.083-.438.917-.438.917s-.658-2.792-1.261-3.292z"/>
      <path fill="#6b6aaf" d="M10.63 19s-1.315 1-1.315 2 1.315 3 1.315 3l.356-2.833L10.63 19z"/>
      <path fill="#a3a3cd" d="M38.127 25.417c1.482.208 1.546-1.333 1.417-1.75s.515-2.125.451-2.625-.257-1.875-.193-3.042-1.419-1.75-2.385-.958S36 19.417 36 19.417s.644 5.791 2.127 6z"/>
      <path fill="#6b6aaf" d="M37.259 21.042s-.164 1.166-.438-.917c.657-2.167 1.699-2.375 1.699-2.375-.602.5-1.261 3.292-1.261 3.292z"/>
      <path fill="#6b6aaf" d="M37.37 19s1.315 1 1.315 2-1.315 3-1.315 3l-.356-2.833L37.37 19z"/>
      <path fill="#a3a3cd" d="M30.317 46h-12.69a4.951 4.951 0 01-4.72-3.459l-2.657-8.415a4.648 4.648 0 01-.211-1.623L11 12c0-5 5-10 13.167-10C31 2 37 6 37 12l.961 19.868a4.653 4.653 0 01-.191 1.565l-2.712 9.04A4.95 4.95 0 0130.317 46z"/>
      <path fill="#8a8ac1" d="M19.469 17.906h-2L13 10h2zm3.219-1.25h-2L17 10h2zm5.531 1.25h2L34.688 10h-2zM25 16.656h2L30.688 10h-2z"/>
      <path fill="#6b6aaf" d="M25.5 17l1-1 5-1 4 3-1 1-5 1z"/>
      <path fill="#6b6aaf" d="M24.375 12.917s1.25 2.708 2.208 3.167c.156.969-.426.635-.426.635s-1.803-.615-1.782-3.802z"/>
      <path fill="#6b6aaf" d="M25.729 17.167c-1.781-1.406-3.865.24-3.865.24s-.115-.135-.365-.698c2.281-2 4.917-.146 4.917-.146l-.687.604z"/>
      <path fill="#6b6aaf" d="M22.375 17l-1-1-5-1-4 3 1 1 5 1z"/>
      <path fill="#6b6aaf" d="M23.5 12.917s-1.25 2.708-2.208 3.167c-.156.969.426.635.426.635s1.803-.615 1.782-3.802z"/>
      <path fill="#263238" d="M32.247 14.447c1.052.871 1.992 1.979 3.253 3.553l-3.813-2.083.56-1.47z"/>
      <path fill="#263238" d="M25.422 16.094l1.828 1.469 5.167-.75.854-.354c-.583-2.438-1.599-2.553-3.162-2.084-1.718.453-3.031.969-4.687 1.719z"/>
      <path fill="#fff" d="M27.219 17.563c.316-.869 1.075-1.563 2.075-1.563H30c.918 0 2.194.289 2.771.583-.518.659-1.362 1.417-3.292 1.417-.879 0-1.396-.104-2.26-.437z"/>
      <path fill="#eba272" d="M30 16h-.706c-.142 0-.278.019-.41.046-.053.011-.103.027-.155.042a1.827 1.827 0 00-.219.076 1.899 1.899 0 00-.379.206c-.034.023-.07.043-.102.068l-.026.023c0 .013-.003.025-.003.039a1.5 1.5 0 003 0c0-.147-.036-.285-.077-.419A6.567 6.567 0 0030 16z"/>
      <path fill="#263238" d="M29.5 16a.5.5 0 100 1 .5.5 0 100-1zm-13.825-1.553c-1.052.871-1.992 1.979-3.253 3.553l3.813-2.083-.56-1.47z"/>
      <path fill="#263238" d="M17.813 14.375c-1.563-.469-2.579-.354-3.162 2.084l.854.354 5.167.75 1.828-1.469c-1.656-.75-2.969-1.266-4.687-1.719z"/>
      <path fill="#fff" d="M18.469 18c-1.93 0-2.774-.758-3.292-1.417.577-.294 1.853-.583 2.771-.583h.706c1 0 1.759.694 2.075 1.563-.864.333-1.381.437-2.26.437z"/>
      <path fill="#eba272" d="M18 16h.706c.142 0 .278.019.41.046.053.011.103.027.155.042.075.021.148.046.219.076a1.899 1.899 0 01.379.206c.034.023.07.043.102.068l.026.023c0 .013.003.025.003.039a1.5 1.5 0 01-3 0c0-.147.036-.285.077-.419.321-.047.639-.081.923-.081z"/>
      <path fill="#263238" d="M18.5 16a.5.5 0 100 1 .5.5 0 100-1z"/>
      <path fill="#6b6aaf" d="M27 24l-3.031 1L21 24v-2l2.969 1L27 22z"/>
      <path fill="#8a8ac1" d="M19 30h-2l-5-9h2zm4 0h-2l-5-9h2zm6 0h2l5-9h-2zm-4 0h2l5-9h-2z"/>
      <path fill="#6b6aaf" d="M17 30c4.662-1.303 9.333-1.281 14 0m-.265.965c-4.511-1.238-9.042-1.238-13.466-.002l-.538-1.926c4.778-1.335 9.668-1.336 14.534-.002l-.53 1.93zM19 22v2l-4.375 3.828-.906 4.094-.11-4.969zm15.391 4.953l-.11 4.969-.906-4.094L29 24v-2z"/>
      <path fill="#8a8ac1" d="M10.502 22.621l-.463 9.882a4.674 4.674 0 00.211 1.623l2.657 8.415c.025.079.064.15.092.227V27l-1-2-1.375-2.938-.122.559zm24.556 19.852l2.712-9.04a4.653 4.653 0 00.191-1.565l-.443-9.153-.143-.652L36 25l-1 2v15.621c.017-.05.043-.097.058-.148z"/>
      <path fill="#8a8ac1" d="M12.908 42.541A4.949 4.949 0 0017.627 46h12.69a4.95 4.95 0 004.741-3.527l.182-.606c-.734.878-2.133 2.319-3.692 2.716-2.24.57-3.827-2.358-7.537-2.331v-.002c-.043-.002-.082.002-.124.001-.043.001-.081-.003-.124-.001v.002c-3.71-.026-5.297 2.902-7.537 2.331-1.397-.356-2.664-1.548-3.441-2.425l.123.383z"/>
      <path fill="#6b6aaf" d="M23 32h2v14h-2zm10 13.192V33h-2v12.944a4.924 4.924 0 002-.752zM27 32h2v14h-2zM17 45.949V33h-2v12.228c.6.377 1.276.629 2 .721zM19 32h2v14h-2z"/>
    </symbol>
    <symbol viewBox="0 0 48 48" id="icon-venom-head">
      <path fill="#37474F" d="M24 2C15.7 2 9 6.9 9 18.5S15.7 46 24 46s15-15.9 15-27.5S32.3 2 24 2z"/>
      <path fill="#FF3D00" d="M34.7 31.3C31.8 30.1 26.3 33 24 33h-.1c-2.3 0-7.8-2.9-10.7-1.7-.9.4-1.5 1.9-.7 3.8 2.6 6 6.7 10.8 11.3 10.9v-.1l.2.1c4.6 0 8.7-4.9 11.3-10.9.8-1.8.2-3.4-.6-3.8z"/>
      <path fill="#ECEFF1" d="M14.4 26.2c-.5-.7-1.5-.8-1.5-.8l-.2-1.1-.8-2.6c-.8-2.9-1-6.2.3-8.2.7-1.1 1.7-1.5 1.7-1.5s-1.2 1.5-.7 2.8c.3 1.1 1.7 1.1 2.2.8.3-.3 1-.7 1-.7s-.7 1.6.2 4.4c.5 2 1.5 3.1 2.5 3.3 1.5.3 3.2-3.3 3.2-3.3s.2 4.2.2 5.1c0 0-1.5.8-2.2 1.8-.5.8-1.7 2.5-2.7 2.9-1-.7-1.3-1.5-2-1.8-.7 0-1.7.5-1.7.5s1-1 .5-1.6zm20.9-1.8l-.2 1.1s-1 .2-1.5.8c-.5.5.3 1.8.3 1.8s-1-.5-1.7-.5c-.7.3-1 1-2 1.8-1-.7-2.2-2.1-2.7-2.9-.7-1-2.2-1.8-2.2-1.8.2-.8.2-5.1.2-5.1s1.5 3.6 3.2 3.3c1.2-.3 2-1.5 2.5-3.3 1-3.1.3-4.7.3-4.7s.7.3 1 .5c.5.3 1.7.3 2.2-.8.5-1.1-.7-2.8-.7-2.8s.8.3 1.7 1.5c1.2 2 1.2 5.2.2 8.3l-.6 2.8z"/>
      <path fill="#FFF3E0" d="M32 31l-2 4-1.8-3.1c.9-.3 1.8-.5 2.7-.7.4-.1.7-.1 1.1-.2zm-6 6l2-5h-.1c-1.5.5-2.8.9-3.7 1l1.8 4zm8.7-5.7c-.6-.2-1.2-.3-1.9-.3h-.6l1.7 3 1.4-2.1c-.1-.2-.3-.4-.6-.6zM16 31l2 4 1.8-3.1c-.9-.3-1.8-.5-2.7-.7-.4-.1-.7-.1-1.1-.2zm7.8 2c-.9-.1-2.2-.5-3.7-1H20l2 5 1.8-4zm-11.2-1.1L14 34l1.7-3h-.6c-.7 0-1.3.1-1.9.3l-.6.6zm15.4 11c1.5-.9 3-2.2 4.3-3.8L30 36l-2 6.9zm-8 0L18 36l-2 3.4c1.2 1.5 2.5 2.7 4 3.5zm0 0c1.3.7 2.6 1.1 4 1.1l-2-6-2 4.9zm6-4.9l-2 6c1.4 0 2.7-.4 4-1.1L26 38z"/>
    </symbol>
    <symbol viewBox="0 0 48 48" id="icon-x-men">
      <path fill="#9FA8DA" d="M24 4C13 4 4 13 4 24s9 20 20 20 20-9 20-20S35 4 24 4zm14 20c0 2.8-.8 5.4-2.2 7.5L28.2 24l7.5-7.5c1.5 2.1 2.3 4.7 2.3 7.5zm-6.5-11.8L24 19.8l-7.5-7.5c2.2-1.4 4.8-2.2 7.5-2.2s5.4.7 7.5 2.1zM12.2 31.5C10.8 29.4 10 26.8 10 24s.8-5.4 2.2-7.5l7.5 7.5-7.5 7.5zm4.3 4.3l7.5-7.5 7.5 7.5C29.4 37.2 26.8 38 24 38s-5.4-.8-7.5-2.2z"/>
      <path fill="#7986CB" d="M40 24c0 3.3-1 6.4-2.8 9l-1.5-1.5c1.4-2.2 2.2-4.8 2.2-7.5 0-2.8-.8-5.4-2.2-7.5L28.2 24h-2.8L36 13.4c.4.5.9 1 1.2 1.6 1.8 2.6 2.8 5.7 2.8 9zm-16-4.2l-7.6-7.5c2.2-1.4 4.7-2.2 7.5-2.2s5.4.8 7.5 2.2l1.5-1.5C30.4 9 27.3 8 24 8c-3.3 0-6.4 1-9 2.8-.6.4-1.1.8-1.6 1.2L24 22.6v-2.8zm0 8.4l7.5 7.5C29.4 37.2 26.8 38 24 38s-5.4-.8-7.5-2.2L15 37.2c2.6 1.7 5.7 2.8 9 2.8s6.4-1 9-2.8c.6-.4 1.1-.8 1.6-1.2L24 25.4v2.8zM19.8 24l-7.5 7.5C10.8 29.3 10 26.8 10 24s.8-5.4 2.2-7.5L10.8 15C9 17.6 8 20.7 8 24s1 6.4 2.7 9c.4.6.8 1.1 1.2 1.6L22.6 24h-2.8z"/>
    </symbol>
  </defs>
</svg>